HIERARCHY
ROOT Hips
{
	OFFSET 0.00000 0.00000 0.00000
	CHANNELS 6 Xposition Yposition Zposition Zrotation Yrotation Xrotation 
	JOINT LHipJoint
	{
		OFFSET 0 0 0
		CHANNELS 3 Zrotation Yrotation Xrotation
		JOINT LeftHip
		{
			OFFSET 1.34019 -1.87553 0.90315
			CHANNELS 3 Zrotation Yrotation Xrotation
			JOINT LeftKnee
			{
				OFFSET 2.55316 -7.01474 0.00000
				CHANNELS 3 Zrotation Yrotation Xrotation
				JOINT LeftAnkle
				{
					OFFSET 2.64657 -7.27139 0.00000
					CHANNELS 3 Zrotation Yrotation Xrotation
					JOINT LeftToe
					{
						OFFSET 0.24207 -0.66507 2.14489
						CHANNELS 3 Zrotation Yrotation Xrotation
						End Site
						{
							OFFSET 0.00000 -0.00000 1.12451
						}
					}
				}
			}
		}
	}
	JOINT RHipJoint
	{
		OFFSET 0 0 0
		CHANNELS 3 Zrotation Yrotation Xrotation
		JOINT RightHip
		{
			OFFSET -1.28320 -1.87553 0.90315
			CHANNELS 3 Zrotation Yrotation Xrotation
			JOINT RightKnee
			{
				OFFSET -2.60484 -7.15674 0.00000
				CHANNELS 3 Zrotation Yrotation Xrotation
				JOINT RightAnkle
				{
					OFFSET -2.60296 -7.15159 0.00000
					CHANNELS 3 Zrotation Yrotation Xrotation
					JOINT RightToe
					{
						OFFSET -0.31082 -0.85398 2.28998
						CHANNELS 3 Zrotation Yrotation Xrotation
						End Site
						{
							OFFSET -0.00000 -0.00000 1.21611
						}
					}
				}
			}
		}
	}
	JOINT lowerback
	{
		OFFSET 0 0 0
		CHANNELS 3 Zrotation Yrotation Xrotation
		JOINT Chest
		{
			OFFSET -0.00160 2.05581 -0.15156
			CHANNELS 3 Zrotation Yrotation Xrotation
			JOINT Chest2
			{
				OFFSET 0.04594 2.06326 -0.01617
				CHANNELS 3 Zrotation Yrotation Xrotation
				JOINT lowerneck
				{
					OFFSET 0 0 0
					CHANNELS 3 Zrotation Yrotation Xrotation
					JOINT Neck
					{
						OFFSET 0.03753 1.73883 0.26751
						CHANNELS 3 Zrotation Yrotation Xrotation
						JOINT Head
						{
							OFFSET -0.09795 1.76129 -0.31794
							CHANNELS 3 Zrotation Yrotation Xrotation
							End Site
							{
								OFFSET -0.03611 1.79987 -0.13846
							}
						}
					}
				}
				JOINT LeftCollar
				{
					OFFSET 0 0 0
					CHANNELS 3 Zrotation Yrotation Xrotation
					JOINT LeftShoulder
					{
						OFFSET 3.30667 1.29205 -0.22445
CHANNELS 3 Zrotation Xrotation Yrotation
						JOINT LeftElbow
						{
OFFSET 0 -4.927850 -0.000000
CHANNELS 3 Zrotation Xrotation Yrotation
							JOINT LeftWrist
							{
OFFSET 0 -3.440520 0.000000
CHANNELS 3 Zrotation Xrotation Yrotation
								JOINT lhand
								{
									OFFSET 0 0 0
CHANNELS 3 Zrotation Xrotation Yrotation
									JOINT LFingers
									{
OFFSET 0 -0.654330 0.000000
CHANNELS 3 Zrotation Xrotation Yrotation
										End Site
										{
OFFSET 0 -0.527530 0.000000
										}
									}
								}
								JOINT LThumb
								{
OFFSET 0 0.000000 0.000000
CHANNELS 3 Zrotation Xrotation Yrotation
									End Site
									{
OFFSET 0 -0.535590 0.535590
									}
								}
							}
						}
					}
				}
				JOINT RightCollar
				{
					OFFSET 0 0 0
					CHANNELS 3 Zrotation Yrotation Xrotation
					JOINT RightShoulder
					{
						OFFSET -3.20032 1.49783 -0.27688
CHANNELS 3 Zrotation Xrotation Yrotation
						JOINT RightElbow
						{
OFFSET 0 -5.091810 -0.000000
CHANNELS 3 Zrotation Xrotation Yrotation
							JOINT RightWrist
							{
OFFSET 0 -3.498650 -0.000000
CHANNELS 3 Zrotation Xrotation Yrotation
								JOINT rhand
								{
									OFFSET 0 0 0
CHANNELS 3 Zrotation Xrotation Yrotation
									JOINT RFingers
									{
OFFSET 0 -0.666410 0.000000
CHANNELS 3 Zrotation Xrotation Yrotation
										End Site
										{
OFFSET 0 -0.537280 0.000000
										}
									}
								}
								JOINT RThumb
								{
OFFSET 0 0.000000 0.000000
CHANNELS 3 Zrotation Xrotation Yrotation
									End Site
									{
OFFSET 0 -0.545480 0.545480
									}
								}
							}
						}
					}
				}
			}
		}
	}
}
MOTION
Frames: 7
Frame Time: 0.008333333333333333
1.152007 15.141180 36.749466 -5.371797 179.440287 352.572508 0.000000 0.000000 0.000000 -26.213221 5.720122 -13.081005 12.281274 18.506999 66.877593 3.619241 9.994249 -40.328348 0.865958 -5.933601 -16.591922 0.000000 0.000000 0.000000 0.586653 1.554145 -49.786198 -23.658599 -19.675632 100.752974 0.318547 -13.859348 -15.382954 -0.137265 -2.374863 6.543362 -8.380359 -0.246601 16.727699 2.586372 -1.216366 2.826865 7.827929 -0.231331 -6.070335 8.914241 2.148971 -15.300387 -8.877846 2.652310 15.132947 -4.105076 1.038970 7.396919 0.000000 0.000000 0.000000 6.426922 0.297850 -29.068539 18.421960 -28.694048 4.750092 7.452804 -7.378413 -3.152610 0.000000 0.000000 0.000000 -7.125000 0.000000 0.000000 -15.448733 32.866967 -4.741451 0.000000 0.000000 0.000000 -9.177523 15.768919 8.665165 -20.516807 -31.259835 -5.797213 -16.415438 -6.851234 4.105973 0.000000 0.000000 0.000000 7.125000 0.000000 0.000000 8.399119 34.166835 2.252876
1.125327 15.194546 36.282967 -5.893372 178.093958 351.713641 0.000000 0.000000 0.000000 -26.875024 6.661992 -9.744642 11.768223 18.290917 65.252164 3.309797 10.332230 -39.056026 1.156021 -6.825979 -19.201045 0.000000 0.000000 0.000000 0.489242 9.334018 -56.143549 -19.557953 -19.994172 88.707334 -0.004969 -11.349063 -16.224361 -0.001794 0.271193 -0.745058 -8.975810 -2.292583 17.721260 2.056143 -4.092025 3.047327 8.211061 -1.635625 -5.790287 9.902246 4.173537 -14.790007 -8.699207 5.122844 14.290255 -3.921646 2.282140 7.296626 0.000000 0.000000 0.000000 7.898680 -4.272286 -27.047560 19.293993 -29.782206 5.176103 7.177805 -9.920405 -1.713348 0.000000 0.000000 0.000000 -7.125000 0.000000 0.000000 -15.415261 31.458981 -5.273575 0.000000 0.000000 0.000000 -7.769846 19.178463 6.812749 -18.151842 -28.350896 -4.621234 -15.851295 -4.058907 4.930207 0.000000 0.000000 0.000000 7.125000 0.000000 0.000000 8.965133 34.989942 2.226492
1.227602 15.231694 35.645572 -6.674358 178.469229 351.864556 0.000000 0.000000 0.000000 -26.217451 8.500188 -7.017358 11.242631 18.051784 63.567040 3.261638 7.600430 -37.354875 1.574277 -7.916368 -22.460416 0.000000 0.000000 0.000000 -1.469834 13.401699 -58.712645 -15.145302 -19.424811 75.673732 0.434932 -12.060644 -7.948112 -0.024742 1.015386 -2.791176 -9.776160 -3.976492 17.852414 1.399012 -6.523276 3.001870 8.405907 -2.839141 -5.400852 9.890471 5.117834 -14.407202 -7.471531 6.145311 13.420425 -3.392603 2.863224 7.011756 0.000000 0.000000 0.000000 10.095091 -9.357844 -25.998245 21.541393 -32.454786 6.338051 8.204445 -12.781424 -1.190993 0.000000 0.000000 0.000000 -7.125000 0.000000 0.000000 -14.533340 30.978891 -5.126603 0.000000 0.000000 0.000000 -5.958736 22.810561 0.561785 -15.408754 -24.712254 -3.395071 -15.462646 -0.703337 4.724616 0.000000 0.000000 0.000000 7.125000 0.000000 0.000000 9.256079 34.761629 2.352294
1.413768 15.171932 34.724946 -7.743266 179.134935 352.465159 0.000000 0.000000 0.000000 -25.835485 9.937942 -2.957176 10.460295 17.660624 61.015926 3.218024 6.494667 -36.590234 1.949729 -8.760415 -25.048748 0.000000 0.000000 0.000000 -2.534001 13.904311 -58.095384 -14.044625 -19.127471 72.340667 0.119222 -12.737680 7.270723 -0.075310 1.769904 -4.870141 -10.144446 -4.986756 16.920621 0.678932 -7.934523 2.757627 7.969897 -3.570070 -4.930777 9.714635 5.564006 -14.471238 -6.604551 6.631193 13.454609 -3.020895 3.154087 7.041527 0.000000 0.000000 0.000000 11.503241 -13.571344 -25.490877 23.806347 -34.958676 7.595345 8.891609 -12.921597 -0.148957 0.000000 0.000000 0.000000 -7.125000 0.000000 0.000000 -13.848126 29.972888 -5.215233 0.000000 0.000000 0.000000 -4.724132 25.292158 -8.764239 -11.881612 -19.626434 -2.062580 -14.370750 6.264799 4.825918 0.000000 0.000000 0.000000 7.125000 0.000000 0.000000 10.162983 34.815616 2.575105
1.727900 14.987842 33.464421 -7.669683 179.610372 354.204558 0.000000 0.000000 0.000000 -23.678562 10.207016 1.530676 9.822138 17.308600 58.892303 3.249128 4.794402 -35.975533 2.449310 -9.744960 -28.154970 0.000000 0.000000 0.000000 0.808318 11.176136 -54.112929 -15.633979 -19.536677 77.139272 0.246778 -8.924551 -4.817922 -0.369531 3.901246 -10.799319 -9.444269 -6.022353 14.373556 0.718078 -9.119975 1.954210 7.525396 -4.250221 -4.294373 10.146064 6.673102 -14.683063 -7.003470 8.145912 14.028521 -3.031083 3.867891 7.430776 0.000000 0.000000 0.000000 11.392734 -13.691805 -24.942808 25.957076 -37.166300 8.861723 9.528762 -12.703674 1.581782 0.000000 0.000000 0.000000 -7.125000 0.000000 0.000000 -13.135094 28.276629 -5.478087 0.000000 0.000000 0.000000 -5.577740 25.734128 -16.796498 -9.166668 -15.425611 -1.244057 -13.429790 15.405782 5.684150 0.000000 0.000000 0.000000 7.125000 0.000000 0.000000 11.065157 35.637831 2.585304
2.166676 14.810497 31.975764 -7.721494 180.034341 355.432826 0.000000 0.000000 0.000000 -20.704795 9.940135 6.999054 9.169711 16.915655 56.675200 2.610145 0.824995 -30.898863 3.179231 -10.979606 -32.211272 0.000000 0.000000 0.000000 5.189284 7.453937 -49.963271 -16.500875 -19.703835 79.720494 -0.760091 -9.787922 -22.780935 -0.007008 0.540348 -1.484861 -10.086651 -6.015721 13.137826 1.149898 -9.230781 0.922093 8.264692 -4.291591 -4.537983 10.194054 7.116964 -15.303867 -7.465808 8.824146 14.725231 -3.085893 4.145058 7.853195 0.000000 0.000000 0.000000 10.174596 -10.317548 -26.143802 25.990036 -37.198736 8.881685 9.566304 -9.407266 2.845937 0.000000 0.000000 0.000000 -7.125000 0.000000 0.000000 -12.961297 27.027902 -5.794678 0.000000 0.000000 0.000000 -6.094521 24.520415 -13.548822 -9.456682 -15.885211 -1.322317 -13.862993 13.907219 5.421214 0.000000 0.000000 0.000000 7.125000 0.000000 0.000000 10.667787 35.394382 2.553999
2.681591 14.949114 30.428346 -5.442597 181.248993 355.492843 0.000000 0.000000 0.000000 -13.480171 5.855121 3.612751 12.001123 18.390946 65.992157 -0.328633 -10.617669 0.416598 2.801275 -10.365528 -30.169341 0.000000 0.000000 0.000000 10.865433 6.146037 -42.924756 -16.835505 -19.758161 80.711751 -1.774406 -11.187992 -31.319381 -0.024735 1.015388 -2.791292 -9.649619 -4.226047 13.182557 2.237723 -7.064400 0.532868 9.012595 -3.279961 -5.358716 10.333802 5.863387 -16.745044 -8.451906 7.250202 16.196791 -3.627227 3.299488 8.492262 0.000000 0.000000 0.000000 7.414143 -6.246526 -28.380078 22.063915 -33.049208 6.620744 10.552197 -3.183848 2.675448 0.000000 0.000000 0.000000 -7.125000 0.000000 0.000000 -12.237362 27.197127 -5.406460 0.000000 0.000000 0.000000 -4.515921 17.868004 -10.925981 -9.446701 -15.869502 -1.319600 -16.062660 12.843678 5.008925 0.000000 0.000000 0.000000 7.125000 0.000000 0.000000 8.801984 35.080513 2.165481
